<?xml version="1.0" encoding="UTF-8"?>
<svg width="149px" height="41px" viewBox="0 0 149 41" version="1.1" xmlns="http://www.w3.org/2000/svg" xmlns:xlink="http://www.w3.org/1999/xlink">
    <!-- Generator: Sketch 46.2 (44496) - http://www.bohemiancoding.com/sketch -->
    <title>Alfa logo</title>
    <desc>Created with Sketch.</desc>
    <defs></defs>
    <g id="Notes-app" stroke="none" stroke-width="1" fill="none" fill-rule="evenodd">
        <g id="Cases" transform="translate(-64.000000, -11.000000)" fill="#FFFFFF">
            <g id="Group-4">
                <g id="alfa-logo" transform="translate(64.000000, 11.000000)">
                    <g id="AlfaSystems_w">
                        <g id="Layer_1" fill-rule="nonzero">
                            <g id="Group">
                                <g transform="translate(0.000000, 10.603448)" id="Shape">
                                    <path d="M7.92369942,1.69655172 L12.0793353,1.69655172 L19.8307803,23.0683908 L15.6966763,23.0683908 L13.8449422,17.4367816 L5.98583815,17.4367816 L4.11257225,23.0683908 L0.172254335,23.0683908 L7.92369942,1.69655172 Z M12.7683526,14.137931 L9.88309249,5.5137931 L7.04089595,14.137931 L12.7683526,14.137931 Z"></path>
                                    <polygon points="21.5533237 0.306321839 25.1276012 0.306321839 25.1276012 23.0683908 21.5533237 23.0683908"></polygon>
                                    <path d="M29.1109827,11.9936782 L26.7424855,11.9936782 L26.7424855,8.76551724 L29.1109827,8.76551724 L29.1109827,6.99827586 C29.1109827,4.83045977 29.5846821,3.13390805 30.5536127,1.95574713 C31.5225434,0.777586207 32.8790462,0.164942529 34.6446532,0.164942529 C35.1614162,0.164942529 35.699711,0.212068966 36.2595376,0.329885057 C36.8193642,0.447701149 37.2715318,0.58908046 37.659104,0.777586207 L37.25,3.98218391 C36.5394509,3.69942529 35.8289017,3.55804598 35.1614162,3.55804598 C34.3001445,3.55804598 33.6757225,3.86436782 33.2666185,4.47701149 C32.8575145,5.08965517 32.6637283,6.03218391 32.6637283,7.32816092 L32.6637283,8.76551724 L36.1734104,8.76551724 L36.1734104,11.9936782 L32.6637283,11.9936782 L32.6637283,23.0683908 L29.0894509,23.0683908 L29.0894509,11.9936782 L29.1109827,11.9936782 Z"></path>
                                    <path d="M43.1712428,23.516092 C42.0300578,23.516092 40.9965318,23.2097701 40.0706647,22.5971264 C39.1447977,21.9844828 38.4342486,21.0890805 37.8959538,19.9344828 C37.357659,18.7798851 37.0992775,17.4603448 37.0992775,15.9522989 C37.0992775,14.562069 37.357659,13.2896552 37.874422,12.1350575 C38.391185,10.9804598 39.1447977,10.0614943 40.0921965,9.3545977 C41.0611272,8.64770115 42.1377168,8.29425287 43.3219653,8.29425287 C44.2047688,8.29425287 45.0229769,8.50632184 45.7550578,8.90689655 C46.4871387,9.30747126 47.0684971,9.87298851 47.4991329,10.6034483 L47.5421965,8.74195402 L50.9657514,8.74195402 L50.9657514,23.0448276 L47.5421965,23.0448276 L47.4991329,21.2068966 C47.0469653,21.9609195 46.4656069,22.5264368 45.733526,22.9034483 C45.0014451,23.3275862 44.1401734,23.516092 43.1712428,23.516092 Z M44.1401734,20.0287356 C45.1521676,20.0287356 45.9703757,19.6517241 46.6378613,18.8741379 C47.283815,18.0965517 47.6067919,17.1068966 47.6067919,15.9051724 C47.6067919,14.7034483 47.283815,13.7137931 46.6378613,12.9597701 C45.9919075,12.1821839 45.1521676,11.8051724 44.1401734,11.8051724 C43.1281792,11.8051724 42.2884393,12.1821839 41.6424855,12.9597701 C40.9965318,13.7373563 40.6735549,14.7034483 40.6735549,15.9051724 C40.6735549,17.1304598 40.9965318,18.1201149 41.6424855,18.8741379 C42.3099711,19.6517241 43.1281792,20.0287356 44.1401734,20.0287356 Z"></path>
                                </g>
                                <path d="M60.8057803,13.0775862 L60.8057803,13.0775862 C60.8057803,13.0775862 56.499422,3.86436782 54.9921965,0.824712644 L54.9921965,0.824712644 C54.7984104,0.377011494 54.5400289,0.164942529 54.2601156,0.164942529 C54.0017341,0.164942529 53.7218208,0.377011494 53.5280347,0.824712644 L53.5280347,0.824712644 C52.0208092,3.86436782 47.7144509,13.0775862 47.7144509,13.0775862 L47.7144509,13.0775862 C47.6498555,13.1954023 47.6283237,13.3367816 47.6283237,13.4545977 L47.6283237,13.5017241 L47.6283237,13.595977 C47.6283237,13.6195402 47.6498555,13.6666667 47.6498555,13.6902299 C47.6929191,13.8316092 47.7575145,13.9494253 47.8436416,14.0436782 C47.8651734,14.0672414 47.8867052,14.0908046 47.908237,14.1143678 C48.0374277,14.2321839 48.1881503,14.2793103 48.3604046,14.2793103 L52.9682081,14.2793103 C53.183526,14.2793103 53.3773121,14.137931 53.4849711,13.9258621 L54.5184971,11.8051724 C54.5184971,11.7816092 54.5184971,11.758046 54.4969653,11.758046 L51.1380058,11.758046 C51.116474,11.758046 51.0949422,11.7109195 51.0949422,11.6873563 L54.1955202,5.08965517 C54.1955202,5.06609195 54.217052,5.06609195 54.2385838,5.06609195 C54.2601156,5.06609195 54.2816474,5.06609195 54.2816474,5.08965517 L54.2816474,5.08965517 L58.6095376,14.2321839 C58.6095376,14.2557471 58.6310694,14.2557471 58.6526012,14.2557471 L60.0952312,14.2557471 C60.2674855,14.2557471 60.4182081,14.1850575 60.5473988,14.0908046 C60.5689306,14.0672414 60.5904624,14.0436782 60.6119942,14.0201149 C60.6981214,13.9258621 60.7627168,13.808046 60.8057803,13.6666667 C60.8057803,13.6431034 60.8273121,13.595977 60.8273121,13.5724138 L60.8273121,13.4781609 L60.8273121,13.4310345 C60.8919075,13.3132184 60.8488439,13.1954023 60.8057803,13.0775862 Z" id="Shape"></path>
                                <g transform="translate(58.781792, 14.844828)" id="Shape">
                                    <path d="M4.43554913,19.416092 C3.59580925,19.416092 2.77760116,19.2982759 1.98092486,19.0390805 C1.18424855,18.7798851 0.538294798,18.45 0.0430635838,18.0494253 L0.258381503,16.4942529 C0.818208092,16.941954 1.48569364,17.2954023 2.26083815,17.5545977 C3.01445087,17.8137931 3.74653179,17.9551724 4.45708092,17.9551724 C5.53367052,17.9551724 6.3949422,17.7431034 7.04089595,17.2954023 C7.66531792,16.8477011 7.9882948,16.2350575 7.9882948,15.433908 C7.9882948,14.891954 7.88063584,14.4678161 7.66531792,14.1614943 C7.45,13.8551724 7.06242775,13.5724138 6.54566474,13.2896552 C6.02890173,13.0304598 5.25375723,12.7241379 4.2632948,12.3706897 C2.86372832,11.8758621 1.8517341,11.3103448 1.27037572,10.6741379 C0.667485549,10.0143678 0.387572254,9.18965517 0.387572254,8.15287356 C0.387572254,6.97471264 0.796676301,6.00862069 1.63641618,5.30172414 C2.45462428,4.59482759 3.57427746,4.24137931 4.97384393,4.24137931 C5.64132948,4.24137931 6.35187861,4.33563218 7.06242775,4.54770115 C7.77297688,4.75977011 8.41893064,5.01896552 8.93569364,5.37241379 L8.69884393,6.85689655 C8.16054913,6.47988506 7.57919075,6.19712644 6.9117052,5.98505747 C6.24421965,5.77298851 5.5982659,5.67873563 4.93078035,5.67873563 C3.96184971,5.67873563 3.20823699,5.8908046 2.6699422,6.29137931 C2.1316474,6.69195402 1.8732659,7.25747126 1.8732659,7.98793103 C1.8732659,8.69482759 2.11011561,9.26034483 2.56228324,9.68448276 C3.01445087,10.1086207 3.81112717,10.5091954 4.93078035,10.8626437 C6.63179191,11.3810345 7.83757225,11.9936782 8.5265896,12.6534483 C9.21560694,13.3132184 9.56011561,14.2321839 9.56011561,15.3632184 C9.56011561,16.612069 9.10794798,17.6017241 8.18208092,18.3321839 C7.21315029,19.0390805 5.98583815,19.416092 4.43554913,19.416092 Z"></path>
                                    <polygon points="16.1919075 17.9787356 10.3783237 4.66551724 12.0793353 4.66551724 17.0101156 16.0936782 21.6179191 4.66551724 23.2543353 4.66551724 14.3186416 26.0844828 12.7037572 26.0844828"></polygon>
                                    <path d="M28.7018786,19.416092 C27.8621387,19.416092 27.0439306,19.2982759 26.2472543,19.0390805 C25.450578,18.7798851 24.8046243,18.45 24.3093931,18.0494253 L24.524711,16.4942529 C25.0845376,16.941954 25.7520231,17.2954023 26.5271676,17.5545977 C27.2807803,17.8137931 28.0128613,17.9551724 28.7234104,17.9551724 C29.8,17.9551724 30.6612717,17.7431034 31.3072254,17.2954023 C31.9316474,16.8477011 32.2546243,16.2350575 32.2546243,15.433908 C32.2546243,14.891954 32.1469653,14.4678161 31.9316474,14.1614943 C31.7163295,13.8551724 31.3287572,13.5724138 30.8119942,13.2896552 C30.2952312,13.0304598 29.5200867,12.7241379 28.5296243,12.3706897 C27.1300578,11.8758621 26.1180636,11.3103448 25.5367052,10.6741379 C24.933815,10.0143678 24.6539017,9.18965517 24.6539017,8.15287356 C24.6539017,6.97471264 25.0630058,6.00862069 25.9027457,5.30172414 C26.7209538,4.59482759 27.8406069,4.24137931 29.2401734,4.24137931 C29.907659,4.24137931 30.6182081,4.33563218 31.3287572,4.54770115 C32.0393064,4.75977011 32.6852601,5.01896552 33.2020231,5.37241379 L32.9651734,6.85689655 C32.4268786,6.47988506 31.8455202,6.19712644 31.1780347,5.98505747 C30.5105491,5.77298851 29.8645954,5.67873563 29.1971098,5.67873563 C28.2281792,5.67873563 27.4530347,5.8908046 26.9362717,6.29137931 C26.4195087,6.69195402 26.1395954,7.25747126 26.1395954,7.98793103 C26.1395954,8.69482759 26.3764451,9.26034483 26.8286127,9.68448276 C27.2807803,10.1086207 28.0774566,10.5091954 29.1971098,10.8626437 C30.8981214,11.3810345 32.1039017,11.9936782 32.7929191,12.6534483 C33.4819364,13.3132184 33.8264451,14.2321839 33.8264451,15.3632184 C33.8264451,16.612069 33.3742775,17.6017241 32.4484104,18.3321839 C31.4794798,19.0390805 30.2521676,19.416092 28.7018786,19.416092 Z"></path>
                                    <polygon points="37.4222543 6.15 34.3647399 6.15 34.3647399 4.66551724 37.4222543 4.66551724 37.4222543 0.14137931 38.9725434 0.14137931 38.9725434 4.66551724 42.6975434 4.66551724 42.6975434 6.15 38.9725434 6.15 38.9725434 18.9212644 37.4222543 18.9212644"></polygon>
                                    <path d="M50.2982659,19.416092 C48.1450867,19.416092 46.4225434,18.7327586 45.1306358,17.366092 C43.8387283,15.9994253 43.1927746,14.1614943 43.1927746,11.8994253 C43.1927746,10.4856322 43.4511561,9.18965517 43.9894509,8.03505747 C44.5062139,6.88045977 45.2598266,5.96149425 46.250289,5.2545977 C47.2192197,4.57126437 48.3388728,4.21781609 49.5877168,4.21781609 C50.6858382,4.21781609 51.6763006,4.50057471 52.5375723,5.06609195 C53.3988439,5.6316092 54.0878613,6.43275862 54.5830925,7.46954023 C55.0783237,8.50632184 55.3367052,9.7316092 55.3367052,11.0982759 C55.3367052,11.4281609 55.3151734,11.8287356 55.250578,12.3 L44.7215318,12.3 C44.7861272,14.0201149 45.324422,15.3867816 46.3364162,16.4 C47.3484104,17.4132184 48.7049133,17.908046 50.4059249,17.908046 C52.042341,17.908046 53.5065029,17.5074713 54.841474,16.7063218 L55.0567919,18.1672414 C54.4969653,18.5678161 53.807948,18.8741379 52.9682081,19.0862069 C52.0854046,19.2982759 51.2026012,19.416092 50.2982659,19.416092 Z M53.807948,10.8390805 C53.7648844,9.26034483 53.3557803,8.01149425 52.5806358,7.09252874 C51.8054913,6.17356322 50.7504335,5.70229885 49.458526,5.70229885 C48.1881503,5.70229885 47.1330925,6.17356322 46.2718208,7.09252874 C45.4105491,8.03505747 44.8937861,9.26034483 44.7215318,10.8390805 L53.807948,10.8390805 Z"></path>
                                    <path d="M58.2219653,4.66551724 L59.6645954,4.66551724 L59.6861272,7.11609195 C60.1382948,6.19712644 60.7627168,5.49022989 61.5593931,4.97183908 C62.3560694,4.45344828 63.2604046,4.19425287 64.2508671,4.19425287 C65.3274566,4.19425287 66.2317919,4.47701149 66.9638728,5.06609195 C67.7174855,5.65517241 68.2342486,6.50344828 68.5572254,7.61091954 C68.9447977,6.55057471 69.5692197,5.70229885 70.4304913,5.08965517 C71.291763,4.47701149 72.2606936,4.19425287 73.3803468,4.19425287 C74.8875723,4.19425287 76.050289,4.7362069 76.8900289,5.79655172 C77.708237,6.85689655 78.1388728,8.36494253 78.1388728,10.3206897 L78.1388728,18.9212644 L76.5885838,18.9212644 L76.5885838,10.6034483 C76.5885838,7.35172414 75.4258671,5.72586207 73.0789017,5.72586207 C71.808526,5.72586207 70.8180636,6.22068966 70.0644509,7.21034483 C69.3108382,8.2 68.9447977,9.54310345 68.9447977,11.216092 L68.9447977,18.9448276 L67.3945087,18.9448276 L67.3945087,10.6034483 C67.3945087,7.35172414 66.2317919,5.72586207 63.9063584,5.72586207 C62.6359827,5.72586207 61.6455202,6.22068966 60.8919075,7.21034483 C60.1382948,8.2 59.7722543,9.51954023 59.7722543,11.1925287 L59.7722543,18.9448276 L58.2219653,18.9448276 L58.2219653,4.66551724 L58.2219653,4.66551724 Z"></path>
                                    <path d="M85.0075145,19.416092 C84.1677746,19.416092 83.3495665,19.2982759 82.5528902,19.0390805 C81.7562139,18.7798851 81.1102601,18.45 80.6150289,18.0494253 L80.8303468,16.4942529 C81.3901734,16.941954 82.057659,17.2954023 82.8328035,17.5545977 C83.5864162,17.8137931 84.3184971,17.9551724 85.0290462,17.9551724 C86.1056358,17.9551724 86.9669075,17.7431034 87.6128613,17.2954023 C88.2372832,16.8477011 88.5602601,16.2350575 88.5602601,15.433908 C88.5602601,14.891954 88.4526012,14.4678161 88.2372832,14.1614943 C88.0219653,13.8551724 87.6343931,13.5724138 87.1176301,13.2896552 C86.6008671,13.0304598 85.8257225,12.7241379 84.8352601,12.3706897 C83.4356936,11.8758621 82.4236994,11.3103448 81.842341,10.6741379 C81.2394509,10.0143678 80.9595376,9.18965517 80.9595376,8.15287356 C80.9595376,6.97471264 81.3686416,6.00862069 82.2083815,5.30172414 C83.0265896,4.59482759 84.1462428,4.24137931 85.5458092,4.24137931 C86.2132948,4.24137931 86.9238439,4.33563218 87.6343931,4.54770115 C88.3449422,4.75977011 88.990896,5.01896552 89.507659,5.37241379 L89.2708092,6.85689655 C88.7325145,6.47988506 88.1511561,6.19712644 87.4836705,5.98505747 C86.816185,5.77298851 86.1702312,5.67873563 85.5027457,5.67873563 C84.533815,5.67873563 83.7586705,5.8908046 83.2419075,6.29137931 C82.7251445,6.69195402 82.4452312,7.25747126 82.4452312,7.98793103 C82.4452312,8.69482759 82.6820809,9.26034483 83.1342486,9.68448276 C83.5864162,10.1086207 84.3830925,10.5091954 85.5027457,10.8626437 C87.2037572,11.3810345 88.4095376,11.9936782 89.0985549,12.6534483 C89.7875723,13.3132184 90.1320809,14.2321839 90.1320809,15.3632184 C90.1320809,16.612069 89.6799133,17.6017241 88.7540462,18.3321839 C87.7851156,19.0390805 86.5578035,19.416092 85.0075145,19.416092 Z"></path>
                                </g>
                            </g>
                        </g>
                    </g>
                </g>
            </g>
        </g>
    </g>
</svg>